<svg width="32" height="32" viewBox="0 0 32 32" fill="none" xmlns="http://www.w3.org/2000/svg">
<rect width="32" height="32" rx="16" fill="#003D32"/>
<mask id="mask0_449_213" style="mask-type:alpha" maskUnits="userSpaceOnUse" x="7" y="10" width="18" height="20">
<path fill-rule="evenodd" clip-rule="evenodd" d="M16 12C14.3431 12 13 13.3431 13 15C13 16.6569 14.3431 18 16 18C17.6569 18 19 16.6569 19 15C19 13.3431 17.6569 12 16 12ZM11 15C11 12.2386 13.2386 10 16 10C18.7614 10 21 12.2386 21 15C21 17.7614 18.7614 20 16 20C13.2386 20 11 17.7614 11 15ZM8.46447 23.4645C9.40215 22.5268 10.6739 22 12 22H20C21.3261 22 22.5979 22.5268 23.5355 23.4645C24.4732 24.4021 25 25.6739 25 27V29C25 29.5523 24.5523 30 24 30C23.4477 30 23 29.5523 23 29V27C23 26.2044 22.6839 25.4413 22.1213 24.8787C21.5587 24.3161 20.7956 24 20 24H12C11.2044 24 10.4413 24.3161 9.87868 24.8787C9.31607 25.4413 9 26.2044 9 27V29C9 29.5523 8.55228 30 8 30C7.44772 30 7 29.5523 7 29V27C7 25.6739 7.52678 24.4021 8.46447 23.4645Z" fill="#E3FB54"/>
</mask>
<g mask="url(#mask0_449_213)">
<path d="M32 16C32 24.8366 24.8366 32 16 32C7.16344 32 0 24.8366 0 16C0 7.16344 7.16344 0 16 0C24.8366 0 32 7.16344 32 16Z" fill="#E3FB54"/>
</g>
</svg>
